<svg width="600" height="200" viewBox="0 0 600 200" fill="none" xmlns="http://www.w3.org/2000/svg">
<rect width="600" height="200" rx="20" fill="#FEFDF3"/>
<path d="M104.691 45.6578C106.355 47.8274 106.977 50.2426 106.557 52.9036C106.273 55.5826 105.047 57.7542 102.877 59.4185L56.3859 95.0806C54.9732 96.2874 54.0009 97.5871 53.469 98.9797C52.9553 100.235 52.7631 101.429 52.8926 102.56C52.9626 103.614 53.2948 104.529 53.8892 105.304C54.4835 106.078 55.3104 106.675 56.3696 107.093C57.3695 107.434 58.5721 107.558 59.9774 107.464C61.4008 107.234 62.8783 106.593 64.4099 105.541L97.4187 80.221C102.962 76.2154 108.398 74.0763 113.727 73.8037C119.075 73.3941 123.673 74.1744 127.523 76.1445C131.391 77.9777 134.543 80.4828 136.98 83.6597C139.357 86.7591 140.96 90.4529 141.788 94.741C142.556 98.9517 142.118 103.595 140.474 108.672C138.77 113.671 135.206 118.251 129.782 122.412L129.085 122.947C128.679 123.381 128.244 123.776 127.779 124.133L83.845 157.834C81.6754 159.498 79.2511 160.188 76.5721 159.905C73.9111 159.484 71.7485 158.189 70.0843 156.02C68.42 153.85 67.7981 151.435 68.2185 148.774C68.502 146.095 69.7285 143.923 71.8981 142.259L118.622 106.419C120.154 105.367 121.147 104.174 121.601 102.841C122.133 101.449 122.334 100.187 122.204 99.0551C122.015 97.8461 121.594 96.8155 120.94 95.9631C120.524 95.4207 119.727 94.8629 118.549 94.2897C117.311 93.639 115.951 93.3901 114.468 93.5429C113.063 93.6363 111.595 94.2088 110.063 95.2607L77.0541 120.581C71.5113 124.586 66.0661 126.794 60.7187 127.204C55.4487 127.554 50.9096 126.851 47.1013 125.095C43.311 123.202 40.2272 120.706 37.8497 117.607C35.5316 114.585 34.0182 111.008 33.3093 106.874C32.5409 102.664 33.0086 98.0588 34.7124 93.0595C36.4161 88.0603 39.9205 83.4029 45.2256 79.0874L45.923 78.5524C46.3285 78.1183 46.7637 77.723 47.2286 77.3663L90.9304 43.8439C93.1 42.1797 95.5152 41.5577 98.1762 41.9781C100.855 42.2616 103.027 43.4882 104.691 45.6578Z" fill="#253541"/>
<path d="M234.184 89.793C234.184 90.9323 233.728 91.8893 232.816 92.6641C231.951 93.3932 230.88 93.7578 229.604 93.7578H200.688C200.095 93.7578 199.617 93.8717 199.252 94.0996C198.887 94.3275 198.614 94.5781 198.432 94.8516C198.249 95.0794 198.158 95.2845 198.158 95.4668C198.158 95.6947 198.249 95.9453 198.432 96.2188C198.614 96.4466 198.887 96.6745 199.252 96.9023C199.617 97.0846 200.095 97.1986 200.688 97.2441H223.041C225.912 97.2897 228.282 97.8594 230.15 98.9531C232.019 100.001 233.34 101.255 234.115 102.713C234.936 104.126 235.346 105.561 235.346 107.02C235.346 108.432 234.936 109.868 234.115 111.326C233.295 112.739 231.951 113.992 230.082 115.086C228.259 116.134 225.912 116.658 223.041 116.658C222.54 116.704 222.175 116.727 221.947 116.727H195.424C194.148 116.727 193.054 116.362 192.143 115.633C191.277 114.858 190.844 113.924 190.844 112.83C190.844 111.691 191.299 110.734 192.211 109.959C193.077 109.23 194.148 108.865 195.424 108.865H223.588C224.271 108.911 224.818 108.82 225.229 108.592C225.684 108.364 226.026 108.113 226.254 107.84C226.482 107.566 226.596 107.293 226.596 107.02C226.596 106.883 226.482 106.655 226.254 106.336C226.026 105.971 225.684 105.698 225.229 105.516C224.818 105.288 224.271 105.151 223.588 105.105H201.166C198.523 105.06 196.335 104.513 194.604 103.465C192.872 102.371 191.641 101.118 190.912 99.7051C190.183 98.2923 189.818 96.8796 189.818 95.4668C189.818 94.054 190.183 92.6641 190.912 91.2969C191.687 89.8841 192.917 88.6764 194.604 87.6738C196.335 86.6257 198.523 86.056 201.166 85.9648C201.622 85.9193 201.964 85.8965 202.191 85.8965H229.604C230.88 85.8965 231.951 86.2839 232.816 87.0586C233.728 87.7878 234.184 88.6992 234.184 89.793ZM252.162 122.811C251.889 125.545 250.385 127.026 247.65 127.254C246.374 127.254 245.258 126.821 244.301 125.955C243.389 125.135 242.934 124.087 242.934 122.811V90.2715C242.979 88.9954 243.458 87.9473 244.369 87.127C245.281 86.2611 246.374 85.8281 247.65 85.8281H276.361C280.372 85.9648 283.402 86.9219 285.453 88.6992C287.504 90.431 288.985 92.4134 289.896 94.6465C290.808 96.834 291.264 99.0671 291.264 101.346C291.264 103.715 290.808 106.017 289.896 108.25C289.031 110.438 287.549 112.42 285.453 114.197C283.402 115.929 280.782 116.818 277.592 116.863H260.365C259.089 116.863 258.018 116.408 257.152 115.496C256.241 114.63 255.785 113.559 255.785 112.283C255.785 111.007 256.218 109.936 257.084 109.07C257.995 108.159 259.089 107.703 260.365 107.703H277.865C278.731 107.703 279.483 107.361 280.121 106.678C280.759 105.949 281.215 105.128 281.488 104.217C281.807 103.26 281.967 102.326 281.967 101.414C281.967 100.457 281.807 99.5228 281.488 98.6113C281.215 97.6543 280.759 96.834 280.121 96.1504C279.483 95.4212 278.731 95.0339 277.865 94.9883H253.939C252.755 95.0339 252.162 95.6263 252.162 96.7656V122.811ZM313.617 116.863C309.607 116.727 306.576 115.792 304.525 114.061C302.475 112.283 300.993 110.301 300.082 108.113C299.171 105.88 298.715 103.624 298.715 101.346C298.715 98.9759 299.148 96.6973 300.014 94.5098C300.925 92.2767 302.406 90.2943 304.457 88.5625C306.553 86.7852 309.197 85.8737 312.387 85.8281H338.363C339.639 85.8281 340.71 86.2611 341.576 87.127C342.488 87.9473 342.943 88.9499 342.943 90.1348C342.943 91.3652 342.488 92.4134 341.576 93.2793C340.71 94.0996 339.639 94.5098 338.363 94.5098H312.797C311.794 94.5098 310.906 94.8516 310.131 95.5352C309.402 96.2188 308.855 97.1074 308.49 98.2012C308.171 99.2949 308.012 100.366 308.012 101.414C308.012 102.553 308.171 103.67 308.49 104.764C308.855 105.857 309.402 106.746 310.131 107.43C310.906 108.068 311.794 108.41 312.797 108.455H338.363C339.639 108.455 340.71 108.865 341.576 109.686C342.488 110.506 342.943 111.486 342.943 112.625C342.943 113.81 342.488 114.812 341.576 115.633C340.71 116.453 339.639 116.863 338.363 116.863H313.617ZM342.123 101.209C342.123 102.075 341.736 102.827 340.961 103.465C340.277 104.057 339.411 104.354 338.363 104.354H316.01C314.962 104.354 314.073 104.057 313.344 103.465C312.615 102.827 312.25 102.075 312.25 101.209C312.25 100.389 312.615 99.6595 313.344 99.0215C314.073 98.429 314.962 98.1328 316.01 98.1328H338.363C339.411 98.1328 340.3 98.4518 341.029 99.0898C341.758 99.6823 342.123 100.389 342.123 101.209ZM364.682 116.863C360.671 116.727 357.641 115.792 355.59 114.061C353.539 112.283 352.058 110.301 351.146 108.113C350.235 105.88 349.779 103.624 349.779 101.346C349.779 98.9759 350.212 96.6973 351.078 94.5098C351.99 92.2767 353.471 90.2943 355.521 88.5625C357.618 86.7852 360.261 85.8737 363.451 85.8281H389.428C390.704 85.8281 391.775 86.2839 392.641 87.1953C393.552 88.0612 394.008 89.1322 394.008 90.4082C394.008 91.6842 393.552 92.778 392.641 93.6895C391.775 94.5553 390.704 94.9883 389.428 94.9883H363.178C362.312 94.9883 361.56 95.3529 360.922 96.082C360.284 96.7656 359.805 97.5859 359.486 98.543C359.213 99.4544 359.076 100.366 359.076 101.277C359.076 102.234 359.213 103.191 359.486 104.148C359.805 105.06 360.284 105.88 360.922 106.609C361.56 107.293 362.312 107.658 363.178 107.703H389.428C390.704 107.703 391.775 108.159 392.641 109.07C393.552 109.936 394.008 111.007 394.008 112.283C394.008 113.559 393.552 114.63 392.641 115.496C391.775 116.408 390.704 116.863 389.428 116.863H364.682ZM415.336 116.863C411.326 116.727 408.295 115.792 406.244 114.061C404.193 112.283 402.712 110.301 401.801 108.113C400.889 105.88 400.434 103.624 400.434 101.346C400.434 98.9759 400.867 96.6973 401.732 94.5098C402.644 92.2767 404.125 90.2943 406.176 88.5625C408.272 86.7852 410.915 85.8737 414.105 85.8281H436.254C439.444 85.8737 442.064 86.7852 444.115 88.5625C446.212 90.2943 447.693 92.2767 448.559 94.5098C449.47 96.6973 449.926 98.9759 449.926 101.346C449.926 103.624 449.47 105.88 448.559 108.113C447.647 110.301 446.166 112.283 444.115 114.061C442.064 115.792 439.034 116.727 435.023 116.863H415.336ZM413.832 94.9883C412.966 94.9883 412.214 95.3529 411.576 96.082C410.938 96.7656 410.46 97.5859 410.141 98.543C409.867 99.4544 409.73 100.366 409.73 101.277C409.73 102.234 409.867 103.191 410.141 104.148C410.46 105.06 410.938 105.88 411.576 106.609C412.214 107.293 412.966 107.658 413.832 107.703H436.527C437.393 107.658 438.145 107.293 438.783 106.609C439.421 105.88 439.877 105.06 440.15 104.148C440.469 103.191 440.629 102.234 440.629 101.277C440.629 100.366 440.469 99.4544 440.15 98.543C439.877 97.5859 439.421 96.7656 438.783 96.082C438.145 95.3529 437.393 94.9883 436.527 94.9883H413.832ZM459.223 94.4414C460.089 92.2539 461.547 90.2943 463.598 88.5625C465.694 86.7852 468.337 85.8737 471.527 85.8281H497.23C498.507 85.8281 499.577 86.2839 500.443 87.1953C501.355 88.0612 501.811 89.1322 501.811 90.4082C501.811 91.6842 501.355 92.778 500.443 93.6895C499.577 94.5553 498.507 94.9883 497.23 94.9883H471.254C470.388 94.9883 469.636 95.3529 468.998 96.082C468.36 96.7656 467.859 97.5859 467.494 98.543C467.175 99.5 467.016 100.411 467.016 101.277V113.24C466.742 115.975 465.238 117.456 462.504 117.684C461.228 117.684 460.111 117.273 459.154 116.453C458.243 115.587 457.787 114.516 457.787 113.24V101.346H457.855C457.855 98.9759 458.311 96.6745 459.223 94.4414ZM546.791 113.24V96.7656C546.791 95.6263 546.199 95.0339 545.014 94.9883H521.088C520.222 95.0339 519.47 95.4212 518.832 96.1504C518.194 96.834 517.715 97.6543 517.396 98.6113C517.123 99.5228 516.986 100.457 516.986 101.414C516.986 102.326 517.123 103.26 517.396 104.217C517.715 105.128 518.194 105.949 518.832 106.678C519.47 107.361 520.222 107.703 521.088 107.703H538.588C539.864 107.703 540.935 108.159 541.801 109.07C542.712 109.936 543.168 111.007 543.168 112.283C543.168 113.559 542.712 114.63 541.801 115.496C540.935 116.408 539.864 116.863 538.588 116.863H521.361C518.171 116.818 515.528 115.929 513.432 114.197C511.381 112.42 509.9 110.438 508.988 108.25C508.122 106.017 507.689 103.715 507.689 101.346C507.689 99.0671 508.145 96.834 509.057 94.6465C509.968 92.4134 511.449 90.431 513.5 88.6992C515.551 86.9219 518.581 85.9648 522.592 85.8281H551.303C552.579 85.8281 553.673 86.2611 554.584 87.127C555.495 87.9473 555.974 88.9954 556.02 90.2715V113.24C556.02 114.516 555.541 115.587 554.584 116.453C553.673 117.273 552.579 117.684 551.303 117.684C548.568 117.456 547.064 115.975 546.791 113.24Z" fill="#253541"/>
</svg>
