<svg width="240" height="240" viewBox="0 0 240 240" fill="none" xmlns="http://www.w3.org/2000/svg">
<circle cx="120" cy="120" r="120" fill="#A1E645"/>
<mask id="path-2-outside-1_113_101" maskUnits="userSpaceOnUse" x="26.8677" y="31.6686" width="178.935" height="175.793" fill="black">
<rect fill="white" x="26.8677" y="31.6686" width="178.935" height="175.793"/>
<path d="M139.171 45.9147C141.39 48.8075 142.219 52.0279 141.659 55.5758C141.281 59.1478 139.645 62.0433 136.753 64.2623L74.7643 111.812C72.8806 113.421 71.5842 115.154 70.8751 117.011C70.1901 118.685 69.9339 120.276 70.1065 121.785C70.1999 123.19 70.6428 124.409 71.4353 125.442C72.2278 126.476 73.3302 127.271 74.7426 127.829C76.0757 128.283 77.6792 128.448 79.5529 128.323C81.4507 128.016 83.4208 127.162 85.463 125.759L129.475 91.999C136.865 86.6582 144.113 83.8061 151.219 83.4426C158.349 82.8965 164.481 83.9369 169.613 86.5637C174.77 89.008 178.974 92.3481 182.223 96.5839C185.393 100.716 187.53 105.642 188.633 111.359C189.658 116.973 189.074 123.165 186.881 129.934C184.61 136.599 179.858 142.706 172.626 148.253L171.696 148.967C171.155 149.546 170.575 150.073 169.955 150.548L111.376 195.483C108.484 197.701 105.251 198.622 101.679 198.244C98.1312 197.683 95.2477 195.957 93.0288 193.064C90.8098 190.171 89.9806 186.951 90.5411 183.403C90.9191 179.831 92.5545 176.935 95.4472 174.716L157.746 126.929C159.788 125.527 161.112 123.937 161.718 122.159C162.427 120.302 162.695 118.62 162.522 117.111C162.27 115.499 161.709 114.125 160.837 112.989C160.282 112.265 159.219 111.522 157.648 110.757C155.998 109.89 154.185 109.558 152.208 109.762C150.334 109.886 148.376 110.649 146.334 112.052L102.322 145.812C94.9314 151.153 87.6712 154.096 80.5413 154.642C73.5147 155.109 67.4625 154.172 62.3848 151.831C57.3311 149.308 53.2193 145.98 50.0493 141.847C46.9586 137.818 44.9406 133.048 43.9954 127.537C42.971 121.923 43.5946 115.783 45.8662 109.117C48.1379 102.451 52.8104 96.2416 59.8839 90.4875L60.8137 89.7743C61.3544 89.1954 61.9346 88.6683 62.5545 88.1928L120.824 43.4962C123.716 41.2772 126.937 40.448 130.485 41.0085C134.057 41.3865 136.952 43.0219 139.171 45.9147Z"/>
</mask>
<path d="M139.171 45.9147C141.39 48.8075 142.219 52.0279 141.659 55.5758C141.281 59.1478 139.645 62.0433 136.753 64.2623L74.7643 111.812C72.8806 113.421 71.5842 115.154 70.8751 117.011C70.1901 118.685 69.9339 120.276 70.1065 121.785C70.1999 123.19 70.6428 124.409 71.4353 125.442C72.2278 126.476 73.3302 127.271 74.7426 127.829C76.0757 128.283 77.6792 128.448 79.5529 128.323C81.4507 128.016 83.4208 127.162 85.463 125.759L129.475 91.999C136.865 86.6582 144.113 83.8061 151.219 83.4426C158.349 82.8965 164.481 83.9369 169.613 86.5637C174.77 89.008 178.974 92.3481 182.223 96.5839C185.393 100.716 187.53 105.642 188.633 111.359C189.658 116.973 189.074 123.165 186.881 129.934C184.61 136.599 179.858 142.706 172.626 148.253L171.696 148.967C171.155 149.546 170.575 150.073 169.955 150.548L111.376 195.483C108.484 197.701 105.251 198.622 101.679 198.244C98.1312 197.683 95.2477 195.957 93.0288 193.064C90.8098 190.171 89.9806 186.951 90.5411 183.403C90.9191 179.831 92.5545 176.935 95.4472 174.716L157.746 126.929C159.788 125.527 161.112 123.937 161.718 122.159C162.427 120.302 162.695 118.62 162.522 117.111C162.27 115.499 161.709 114.125 160.837 112.989C160.282 112.265 159.219 111.522 157.648 110.757C155.998 109.89 154.185 109.558 152.208 109.762C150.334 109.886 148.376 110.649 146.334 112.052L102.322 145.812C94.9314 151.153 87.6712 154.096 80.5413 154.642C73.5147 155.109 67.4625 154.172 62.3848 151.831C57.3311 149.308 53.2193 145.98 50.0493 141.847C46.9586 137.818 44.9406 133.048 43.9954 127.537C42.971 121.923 43.5946 115.783 45.8662 109.117C48.1379 102.451 52.8104 96.2416 59.8839 90.4875L60.8137 89.7743C61.3544 89.1954 61.9346 88.6683 62.5545 88.1928L120.824 43.4962C123.716 41.2772 126.937 40.448 130.485 41.0085C134.057 41.3865 136.952 43.0219 139.171 45.9147Z" fill="#253541"/>
<path d="M141.659 55.5758L140.671 55.4198L140.667 55.4451L140.664 55.4706L141.659 55.5758ZM74.7643 111.812L74.1557 111.018L74.1348 111.034L74.1148 111.051L74.7643 111.812ZM70.8751 117.011L71.8006 117.389L71.8051 117.378L71.8093 117.367L70.8751 117.011ZM70.1065 121.785L71.1043 121.719L71.1027 121.695L71.1 121.671L70.1065 121.785ZM74.7426 127.829L74.3754 128.759L74.3975 128.768L74.42 128.775L74.7426 127.829ZM79.5529 128.323L79.6192 129.321L79.6662 129.318L79.7126 129.311L79.5529 128.323ZM85.463 125.759L86.0291 126.584L86.0507 126.569L86.0716 126.553L85.463 125.759ZM129.475 91.999L128.889 91.1885L128.877 91.1969L128.866 91.2056L129.475 91.999ZM151.219 83.4426L151.27 84.4413L151.283 84.4406L151.296 84.4397L151.219 83.4426ZM169.613 86.5637L169.158 87.4539L169.171 87.4609L169.185 87.4674L169.613 86.5637ZM188.633 111.359L189.617 111.18L189.615 111.17L188.633 111.359ZM186.881 129.934L187.828 130.256L187.83 130.249L187.833 130.242L186.881 129.934ZM171.696 148.967L171.087 148.173L171.022 148.224L170.965 148.284L171.696 148.967ZM101.679 198.244L101.523 199.232L101.548 199.236L101.574 199.238L101.679 198.244ZM90.5411 183.403L91.5288 183.559L91.5328 183.534L91.5355 183.508L90.5411 183.403ZM157.746 126.929L157.179 126.105L157.158 126.12L157.137 126.136L157.746 126.929ZM161.718 122.159L160.783 121.802L160.777 121.819L160.771 121.837L161.718 122.159ZM162.522 117.111L163.516 116.997L163.513 116.977L163.51 116.957L162.522 117.111ZM157.648 110.757L157.183 111.642L157.197 111.65L157.211 111.657L157.648 110.757ZM152.208 109.762L152.274 110.759L152.292 110.758L152.31 110.756L152.208 109.762ZM146.334 112.052L145.768 111.228L145.746 111.242L145.725 111.258L146.334 112.052ZM102.322 145.812L102.908 146.623L102.919 146.614L102.931 146.606L102.322 145.812ZM80.5413 154.642L80.6076 155.64L80.6177 155.639L80.5413 154.642ZM62.3848 151.831L61.9381 152.726L61.952 152.733L61.9661 152.739L62.3848 151.831ZM43.9954 127.537L44.9811 127.368L44.9792 127.357L43.9954 127.537ZM59.8839 90.4875L59.2753 89.694L59.264 89.7027L59.2529 89.7118L59.8839 90.4875ZM60.8137 89.7743L61.4224 90.5677L61.4881 90.5173L61.5445 90.4569L60.8137 89.7743ZM130.485 41.0085L130.329 41.9963L130.354 42.0003L130.379 42.003L130.485 41.0085ZM139.171 45.9147L138.378 46.5233C140.433 49.2023 141.188 52.1471 140.671 55.4198L141.659 55.5758L142.647 55.7319C143.251 51.9086 142.348 48.4126 139.965 45.3061L139.171 45.9147ZM141.659 55.5758L140.664 55.4706C140.316 58.7654 138.823 61.4139 136.144 63.4688L136.753 64.2623L137.361 65.0557C140.468 62.6728 142.246 59.5302 142.653 55.681L141.659 55.5758ZM136.753 64.2623L136.144 63.4688L74.1557 111.018L74.7643 111.812L75.373 112.605L137.361 65.0557L136.753 64.2623ZM74.7643 111.812L74.1148 111.051C72.1348 112.743 70.7226 114.607 69.9409 116.654L70.8751 117.011L71.8093 117.367C72.4458 115.701 73.6264 114.099 75.4138 112.572L74.7643 111.812ZM70.8751 117.011L69.9496 116.632C69.213 118.432 68.9179 120.193 69.113 121.898L70.1065 121.785L71.1 121.671C70.9499 120.359 71.1672 118.937 71.8006 117.389L70.8751 117.011ZM70.1065 121.785L69.1087 121.851C69.214 123.437 69.7193 124.848 70.6418 126.051L71.4353 125.442L72.2287 124.834C71.5663 123.97 71.1857 122.944 71.1043 121.719L70.1065 121.785ZM71.4353 125.442L70.6418 126.051C71.5618 127.251 72.8228 128.146 74.3754 128.759L74.7426 127.829L75.1098 126.899C73.8376 126.396 72.8937 125.701 72.2287 124.834L71.4353 125.442ZM74.7426 127.829L74.42 128.775C75.9122 129.284 77.6552 129.452 79.6192 129.321L79.5529 128.323L79.4866 127.326C77.7031 127.444 76.2392 127.282 75.0652 126.882L74.7426 127.829ZM79.5529 128.323L79.7126 129.311C81.792 128.974 83.899 128.046 86.0291 126.584L85.463 125.759L84.8969 124.935C82.9426 126.277 81.1095 127.059 79.3932 127.336L79.5529 128.323ZM85.463 125.759L86.0716 126.553L130.083 92.7925L129.475 91.999L128.866 91.2056L84.8543 124.966L85.463 125.759ZM129.475 91.999L130.06 92.8096C137.338 87.5502 144.405 84.7925 151.27 84.4413L151.219 83.4426L151.168 82.4439C143.822 82.8197 136.392 85.7662 128.889 91.1885L129.475 91.999ZM151.219 83.4426L151.296 84.4397C158.286 83.9043 164.224 84.9291 169.158 87.4539L169.613 86.5637L170.069 85.6735C164.737 82.9447 158.413 81.8887 151.143 82.4455L151.219 83.4426ZM169.613 86.5637L169.185 87.4674C174.209 89.8485 178.283 93.0912 181.429 97.1926L182.223 96.5839L183.016 95.9753C179.664 91.6049 175.332 88.1675 170.042 85.6601L169.613 86.5637ZM182.223 96.5839L181.429 97.1926C184.494 101.188 186.574 105.965 187.651 111.549L188.633 111.359L189.615 111.17C188.486 105.318 186.291 100.245 183.016 95.9753L182.223 96.5839ZM188.633 111.359L187.65 111.539C188.638 116.955 188.084 122.976 185.93 129.626L186.881 129.934L187.833 130.242C190.064 123.354 190.678 116.992 189.617 111.18L188.633 111.359ZM186.881 129.934L185.935 129.611C183.743 136.042 179.138 141.998 172.017 147.46L172.626 148.253L173.235 149.047C180.578 143.414 185.476 137.157 187.828 130.256L186.881 129.934ZM172.626 148.253L172.017 147.46L171.087 148.173L171.696 148.967L172.305 149.76L173.235 149.047L172.626 148.253ZM171.696 148.967L170.965 148.284C170.462 148.823 169.922 149.313 169.347 149.755L169.955 150.548L170.564 151.342C171.228 150.832 171.849 150.268 172.427 149.649L171.696 148.967ZM169.955 150.548L169.347 149.755L110.768 194.689L111.376 195.483L111.985 196.276L170.564 151.342L169.955 150.548ZM111.376 195.483L110.768 194.689C108.075 196.755 105.097 197.6 101.784 197.25L101.679 198.244L101.574 199.238C105.405 199.644 108.892 198.648 111.985 196.276L111.376 195.483ZM101.679 198.244L101.835 197.256C98.5447 196.736 95.8878 195.148 93.8222 192.455L93.0288 193.064L92.2353 193.673C94.6077 196.765 97.7177 198.631 101.523 199.232L101.679 198.244ZM93.0288 193.064L93.8222 192.455C91.7672 189.776 91.0118 186.832 91.5288 183.559L90.5411 183.403L89.5533 183.247C88.9493 187.07 89.8523 190.566 92.2353 193.673L93.0288 193.064ZM90.5411 183.403L91.5355 183.508C91.8842 180.213 93.3769 177.565 96.0559 175.51L95.4472 174.716L94.8386 173.923C91.732 176.306 89.954 179.448 89.5466 183.298L90.5411 183.403ZM95.4472 174.716L96.0559 175.51L158.354 127.723L157.746 126.929L157.137 126.136L94.8386 173.923L95.4472 174.716ZM157.746 126.929L158.312 127.753C160.475 126.268 161.97 124.52 162.664 122.482L161.718 122.159L160.771 121.837C160.254 123.354 159.101 124.785 157.179 126.105L157.746 126.929ZM161.718 122.159L162.652 122.516C163.401 120.554 163.711 118.707 163.516 116.997L162.522 117.111L161.529 117.225C161.678 118.533 161.452 120.051 160.783 121.802L161.718 122.159ZM162.522 117.111L163.51 116.957C163.236 115.203 162.617 113.667 161.63 112.38L160.837 112.989L160.043 113.597C160.8 114.583 161.305 115.796 161.534 117.266L162.522 117.111ZM160.837 112.989L161.63 112.38C160.929 111.466 159.691 110.639 158.086 109.858L157.648 110.757L157.211 111.657C158.748 112.404 159.635 113.065 160.043 113.597L160.837 112.989ZM157.648 110.757L158.114 109.872C156.278 108.907 154.265 108.544 152.105 108.767L152.208 109.762L152.31 110.756C154.105 110.571 155.719 110.873 157.183 111.642L157.648 110.757ZM152.208 109.762L152.141 108.764C150.04 108.903 147.912 109.755 145.768 111.228L146.334 112.052L146.9 112.876C148.84 111.544 150.628 110.869 152.274 110.759L152.208 109.762ZM146.334 112.052L145.725 111.258L101.713 145.019L102.322 145.812L102.931 146.606L146.942 112.845L146.334 112.052ZM102.322 145.812L101.736 145.002C94.4545 150.264 87.367 153.117 80.465 153.645L80.5413 154.642L80.6177 155.639C87.9755 155.076 95.4084 152.042 102.908 146.623L102.322 145.812ZM80.5413 154.642L80.475 153.645C73.5726 154.103 67.6952 153.178 62.8035 150.923L62.3848 151.831L61.9661 152.739C67.2299 155.166 73.4568 156.115 80.6076 155.64L80.5413 154.642ZM62.3848 151.831L62.8315 150.937C57.9019 148.475 53.9127 145.241 50.8428 141.238L50.0493 141.847L49.2559 142.456C52.5258 146.719 56.7603 150.14 61.9381 152.726L62.3848 151.831ZM50.0493 141.847L50.8428 141.238C47.8605 137.351 45.9016 132.735 44.981 127.368L43.9954 127.537L43.0098 127.706C43.9796 133.36 46.0567 138.285 49.2559 142.456L50.0493 141.847ZM43.9954 127.537L44.9792 127.357C43.9917 121.946 44.5834 115.981 46.8128 109.44L45.8662 109.117L44.9197 108.794C42.6058 115.584 41.9502 121.899 43.0117 127.716L43.9954 127.537ZM45.8662 109.117L46.8128 109.44C49.0084 102.997 53.5449 96.9332 60.515 91.2632L59.8839 90.4875L59.2529 89.7118C52.076 95.5499 47.2673 101.906 44.9197 108.794L45.8662 109.117ZM59.8839 90.4875L60.4926 91.2809L61.4224 90.5677L60.8137 89.7743L60.2051 88.9808L59.2753 89.694L59.8839 90.4875ZM60.8137 89.7743L61.5445 90.4569C62.0481 89.9177 62.5876 89.4278 63.1632 88.9862L62.5545 88.1928L61.9459 87.3993C61.2817 87.9088 60.6607 88.4732 60.083 89.0917L60.8137 89.7743ZM62.5545 88.1928L63.1632 88.9862L121.432 44.2897L120.824 43.4962L120.215 42.7028L61.9459 87.3993L62.5545 88.1928ZM120.824 43.4962L121.432 44.2897C124.111 42.2347 127.056 41.4793 130.329 41.9963L130.485 41.0085L130.641 40.0208C126.817 39.4168 123.322 40.3198 120.215 42.7028L120.824 43.4962ZM130.485 41.0085L130.379 42.003C133.674 42.3516 136.323 43.8443 138.378 46.5233L139.171 45.9147L139.965 45.3061C137.582 42.1995 134.439 40.4214 130.59 40.0141L130.485 41.0085Z" fill="#253541" mask="url(#path-2-outside-1_113_101)"/>
</svg>
