<svg width="240" height="240" viewBox="0 0 240 240" fill="none" xmlns="http://www.w3.org/2000/svg">
<circle cx="120" cy="120" r="120" fill="white"/>
<path d="M135.691 68.6578C137.355 70.8274 137.977 73.2426 137.557 75.9036C137.273 78.5826 136.047 80.7542 133.877 82.4185L87.3859 118.081C85.9732 119.287 85.0009 120.587 84.469 121.98C83.9553 123.235 83.7631 124.429 83.8926 125.56C83.9626 126.614 84.2948 127.529 84.8892 128.304C85.4835 129.078 86.3104 129.675 87.3696 130.093C88.3695 130.434 89.5721 130.558 90.9774 130.464C92.4008 130.234 93.8783 129.593 95.4099 128.541L128.419 103.221C133.962 99.2154 139.398 97.0763 144.727 96.8037C150.075 96.3941 154.673 97.1744 158.523 99.1445C162.391 100.978 165.543 103.483 167.98 106.66C170.357 109.759 171.96 113.453 172.788 117.741C173.556 121.952 173.118 126.595 171.474 131.672C169.77 136.671 166.206 141.251 160.782 145.412L160.085 145.947C159.679 146.381 159.244 146.776 158.779 147.133L114.845 180.834C112.675 182.498 110.251 183.188 107.572 182.905C104.911 182.484 102.749 181.189 101.084 179.02C99.42 176.85 98.7981 174.435 99.2185 171.774C99.502 169.095 100.729 166.923 102.898 165.259L149.622 129.419C151.154 128.367 152.147 127.174 152.601 125.841C153.133 124.449 153.334 123.187 153.204 122.055C153.015 120.846 152.594 119.815 151.94 118.963C151.524 118.421 150.727 117.863 149.549 117.29C148.311 116.639 146.951 116.39 145.468 116.543C144.063 116.636 142.595 117.209 141.063 118.261L108.054 143.581C102.511 147.586 97.0661 149.794 91.7187 150.204C86.4487 150.554 81.9096 149.851 78.1013 148.095C74.311 146.202 71.2272 143.706 68.8497 140.607C66.5316 137.585 65.0182 134.008 64.3093 129.874C63.5409 125.664 64.0086 121.059 65.7124 116.06C67.4161 111.06 70.9205 106.403 76.2256 102.087L76.923 101.552C77.3285 101.118 77.7637 100.723 78.2286 100.366L121.93 66.8439C124.1 65.1797 126.515 64.5577 129.176 64.9781C131.855 65.2616 134.027 66.4882 135.691 68.6578Z" fill="#253541"/>
</svg>
