<svg width="230" height="230" viewBox="0 0 230 230" fill="none" xmlns="http://www.w3.org/2000/svg">
<rect width="230" height="230" fill="white"/>
<path d="M128.691 63.6578C130.355 65.8274 130.977 68.2426 130.557 70.9036C130.273 73.5826 129.047 75.7542 126.877 77.4185L80.3859 113.081C78.9732 114.287 78.0009 115.587 77.469 116.98C76.9553 118.235 76.7631 119.429 76.8926 120.56C76.9626 121.614 77.2948 122.529 77.8892 123.304C78.4835 124.078 79.3104 124.675 80.3696 125.093C81.3695 125.434 82.5721 125.558 83.9774 125.464C85.4008 125.234 86.8783 124.593 88.4099 123.541L121.419 98.221C126.962 94.2154 132.398 92.0763 137.727 91.8037C143.075 91.3941 147.673 92.1744 151.523 94.1445C155.391 95.9777 158.543 98.4828 160.98 101.66C163.357 104.759 164.96 108.453 165.788 112.741C166.556 116.952 166.118 121.595 164.474 126.672C162.77 131.671 159.206 136.251 153.782 140.412L153.085 140.947C152.679 141.381 152.244 141.776 151.779 142.133L107.845 175.834C105.675 177.498 103.251 178.188 100.572 177.905C97.9111 177.484 95.7485 176.189 94.0843 174.02C92.42 171.85 91.7981 169.435 92.2185 166.774C92.502 164.095 93.7285 161.923 95.8981 160.259L142.622 124.419C144.154 123.367 145.147 122.174 145.601 120.841C146.133 119.449 146.334 118.187 146.204 117.055C146.015 115.846 145.594 114.815 144.94 113.963C144.524 113.421 143.727 112.863 142.549 112.29C141.311 111.639 139.951 111.39 138.468 111.543C137.063 111.636 135.595 112.209 134.063 113.261L101.054 138.581C95.5113 142.586 90.0661 144.794 84.7187 145.204C79.4487 145.554 74.9096 144.851 71.1013 143.095C67.311 141.202 64.2272 138.706 61.8497 135.607C59.5316 132.585 58.0182 129.008 57.3093 124.874C56.5409 120.664 57.0086 116.059 58.7124 111.06C60.4161 106.06 63.9205 101.403 69.2256 97.0874L69.923 96.5524C70.3285 96.1183 70.7637 95.723 71.2286 95.3663L114.93 61.8439C117.1 60.1797 119.515 59.5577 122.176 59.9781C124.855 60.2616 127.027 61.4882 128.691 63.6578Z" fill="#253541"/>
</svg>
